<svg xmlns="http://www.w3.org/2000/svg" viewBox="0 0 512 512">
  <defs>
	<linearGradient id="bg" x1="0" y1="0" x2="0" y2="1">
	  <stop offset="0" stop-color="#0b2a66"/>
	  <stop offset="1" stop-color="#03173d"/>
	</linearGradient>
	<linearGradient id="sun" x1="0" y1="0" x2="0" y2="1">
	  <stop offset="0" stop-color="#ffc35a"/>
	  <stop offset="1" stop-color="#ff6a3d"/>
	</linearGradient>
	<linearGradient id="lens" x1="0" y1="0" x2="1" y2="1">
	  <stop offset="0" stop-color="#2b3550"/>
	  <stop offset="1" stop-color="#0d1222"/>
	</linearGradient>
	<clipPath id="sunClip">
	  <circle cx="256" cy="246" r="150"/>
	</clipPath>
  </defs>
  <rect width="512" height="512" fill="url(#bg)"/>
  <g clip-path="url(#sunClip)">
	<rect x="96" y="96" width="320" height="300" fill="url(#sun)"/>
	<rect x="96" y="318" width="320" height="8" fill="#03173d"/>
	<rect x="96" y="340" width="320" height="12" fill="#03173d"/>
	<rect x="96" y="366" width="320" height="30" fill="#03173d"/>
  </g>
  <path d="M152 380 Q200 360 256 372 T360 368" fill="none" stroke="#2ec4b6" stroke-width="10" stroke-linecap="round"/>
  <rect x="96" y="204" width="320" height="16" rx="8" fill="#14141f"/>
  <path d="M238 224 Q256 206 274 224" fill="none" stroke="#14141f" stroke-width="14" stroke-linecap="round"/>
  <path d="M118 212 H238 Q246 212 244 224 L234 268 Q228 298 196 298 H160 Q128 298 122 268 L112 224 Q110 212 118 212 Z" fill="url(#lens)" stroke="#14141f" stroke-width="8"/>
  <path d="M394 212 H274 Q266 212 268 224 L278 268 Q284 298 316 298 H352 Q384 298 390 268 L400 224 Q402 212 394 212 Z" fill="url(#lens)" stroke="#14141f" stroke-width="8"/>
  <path d="M142 232 L170 264" stroke="#ffffff" stroke-opacity="0.55" stroke-width="9" stroke-linecap="round"/>
  <path d="M298 232 L326 264" stroke="#ffffff" stroke-opacity="0.55" stroke-width="9" stroke-linecap="round"/>
</svg>
